# xmcd
#
# Track frame offsets:
#	150
#	15306
#	33012
#	47764
#	63664
#	78078
#	98580
#	114080
#	126427
#	145584
#	158816
#	177241
#	190348
#	204629
#	217902
#
# Disc length: 3070 seconds
#
# Revision: 0
# Processed by: cddbd v1.5.2PL0 Copyright (c) Steve Scherf et al.
# Submitted via: EasyCDDAExtractor 16.0.6.1
#
DISCID=bb0bfc0f
DTITLE=Καζαντζίδης Στέλιος - Καζαντζίδης Στέλιος 2
DYEAR=2009
DGENRE=Λαϊκή
TTITLE0=Καζαντζίδης Στέλιος - Αραπίνες [ΒασίληςΤσιτσάνης]
TTITLE1=Καζαντζίδης Στέλιος - Δε θα ξαναγαπήσω [Μ. Λοΐζος-Λ. Παπαδόπουλος]
TTITLE2=Καζαντζίδης Στέλιος - Παραστράτησα για σένα [Κώστας Καπλάνης]
TTITLE3=Καζαντζίδης Στέλιος - Συγχώρεσέ με [Στέλιος Καζαντζίδης]
TTITLE4=Καζαντζίδης Στέλιος - Βαριά χτυπούν τα σήμαντρα [Βασίλης Τσιτσάνης]
TTITLE5=Καζαντζίδης Στέλιος - Εγώ ποτέ δεν τραγουδώ [Θ. Πολυκανδριώτης-Λ. Παπα
TTITLE5=δόπουλος]
TTITLE6=Καζαντζίδης Στέλιος - Άνθρωπος γυαλί [Τ. Σούκας-Β. Κουτσοκώστα]
TTITLE7=Καζαντζίδης Στέλιος - Έξω απ' άδικο [Χρήστος Κολοκοτρώνης]
TTITLE8=Καζαντζίδης Στέλιος - Να 'ρθείς ξανά [Χ. Νικολόπουλος-Τ. Θωμαΐδου]
TTITLE9=Καζαντζίδης Στέλιος - Ο φίλος μας [Θ. Πολυκαντριώτης-Λ. Χαψιάδης]
TTITLE10=Καζαντζίδης Στέλιος - Οδός Αναπαύσεως κλειστή [Τ. Σούκας-Β. Παπαδόπου
TTITLE10=λος]
TTITLE11=Μαρινέλλα-Καζαντζίδης Στέλιος - Ηλιοβασιλέματα [Μανώλης Χιώτης]
TTITLE12=Καζαντζίδης Στέλιος-Μαρινέλλα - Για μάς ποτέ μην ξημερώσει [Σ. Καζαντ
TTITLE12=ζίδης-Ν. Μουρκάκος]
TTITLE13=Καζαντζίδης Στέλιος - Απόψε με παράπονο [Στέλιος Καζαντζίδης]
TTITLE14=Καζαντζίδης Στέλιος - Ξέχασέ με, ξέχασέ με [Μ. Μπακάλης-Κ. Βίρβος]
EXTD=
EXTT0=
EXTT1=
EXTT2=
EXTT3=
EXTT4=
EXTT5=
EXTT6=
EXTT7=
EXTT8=
EXTT9=
EXTT10=
EXTT11=
EXTT12=
EXTT13=
EXTT14=
PLAYORDER=
